<svg width="24" height="24" viewBox="0 0 24 24" fill="none" xmlns="http://www.w3.org/2000/svg">
<path d="M12 13C14.7614 13 17 10.7614 17 8C17 5.23858 14.7614 3 12 3C9.23858 3 7 5.23858 7 8C7 10.7614 9.23858 13 12 13Z" fill="#1B75BC"/>
<path d="M12 14.666C7.85977 14.6706 4.50461 18.0258 4.5 22.166C4.5 22.6262 4.87309 22.9993 5.33332 22.9993H18.6666C19.1269 22.9993 19.5 22.6262 19.5 22.166C19.4954 18.0258 16.1402 14.6706 12 14.666Z" fill="#1B75BC"/>
<mask id="mask0_252_965" style="mask-type:alpha" maskUnits="userSpaceOnUse" x="3" y="2" width="18" height="16">
<ellipse cx="12" cy="10" rx="9" ry="8" fill="black"/>
</mask>
<g mask="url(#mask0_252_965)">
<path d="M12 13C14.7614 13 17 10.7614 17 8C17 5.23858 14.7614 3 12 3C9.23858 3 7 5.23858 7 8C7 10.7614 9.23858 13 12 13Z" fill="#165E96"/>
<path d="M12 14.666C7.85977 14.6706 4.50461 18.0258 4.5 22.166C4.5 22.6262 4.87309 22.9993 5.33332 22.9993H18.6666C19.1269 22.9993 19.5 22.6262 19.5 22.166C19.4954 18.0258 16.1402 14.6706 12 14.666Z" fill="#165E96"/>
</g>
</svg>
