<svg width="40" height="40" viewBox="0 0 40 40" fill="none" xmlns="http://www.w3.org/2000/svg">
<path d="M33.2677 30.3517C32.6486 31.4234 31.2769 31.7901 30.21 31.1709C29.1384 30.5518 28.7717 29.1801 29.3908 28.1085C30.01 27.0368 31.3817 26.6701 32.4533 27.2893C33.5201 27.9084 33.8869 29.2801 33.2677 30.3517Z" fill="#3D7AF0"/>
<path d="M30.9817 21.0932C30.7626 20.7074 30.4578 20.4026 30.091 20.193C29.7243 19.9787 29.3099 19.8691 28.867 19.8691H22.5754L20.9322 22.7125L20.9275 22.722L20.7227 23.0793L21.6657 24.7081L22.342 23.5365C22.3563 23.5079 22.3753 23.4793 22.3896 23.4507L23.5136 21.5028H25.514L21.7181 28.0706L20.8703 29.5376L20.7798 29.6947L21.9848 31.7808C22.2086 32.1666 22.5087 32.4714 22.8754 32.6762H22.8802C23.2469 32.8906 23.6613 33.0001 24.0995 33.0001C24.5376 33.0001 24.9568 32.8906 25.3235 32.6762H25.3283C25.6902 32.4667 25.995 32.1619 26.2189 31.7808L28.6003 27.6563L30.9817 23.5317C31.2055 23.1459 31.3198 22.7268 31.3198 22.3124C31.3151 21.8981 31.2055 21.479 30.9817 21.0932ZM29.5767 22.7173L27.1953 26.8418L24.8139 30.9664C24.7377 31.0998 24.6329 31.2046 24.5186 31.2712C24.4043 31.3379 24.2662 31.3712 24.109 31.3712C23.9518 31.3712 23.8137 31.3379 23.6994 31.2712C23.5803 31.2046 23.4803 31.0998 23.4041 30.9664L22.6706 29.6947L27.4001 21.498H28.867C29.0242 21.498 29.1623 21.5314 29.2766 21.598H29.2814C29.3957 21.6647 29.4957 21.7695 29.5767 21.9028V21.8981C29.6529 22.0267 29.6862 22.1696 29.6862 22.3077C29.6862 22.4506 29.6481 22.5887 29.5767 22.7173Z" fill="#3D7AF0"/>
<path d="M22.0228 9.23852C22.0228 10.4768 21.0226 11.477 19.7843 11.477C18.546 11.477 17.541 10.4721 17.541 9.23852C17.541 8.0002 18.5412 7.00002 19.7843 7.00002C21.0226 6.99525 22.0228 8.0002 22.0228 9.23852Z" fill="#3D7AF0"/>
<path d="M26.9908 14.8253C26.9908 14.4014 26.8812 13.987 26.6621 13.606C26.4431 13.225 26.1382 12.9201 25.7715 12.7106V12.7058C25.4095 12.4963 24.9904 12.3867 24.5475 12.3867H15.0267C14.579 12.3867 14.1599 12.4963 13.8026 12.7058C13.4454 12.9106 13.1406 13.2154 12.9168 13.606L12.912 13.6108C12.6929 13.9918 12.5834 14.4061 12.5786 14.83C12.5786 15.2539 12.6882 15.6683 12.912 16.0541L16.0554 21.5027H19.7609L20.6991 19.8738H19.3465C19.3132 19.8738 19.2798 19.8738 19.2465 19.8786H16.9985L16.7032 19.3689L15.9983 18.1497H25.4619L26.6669 16.0588C26.8812 15.6635 26.9955 15.2491 26.9908 14.8253ZM24.5475 14.0108C24.6999 14.0108 24.8428 14.0489 24.9618 14.1156C25.0761 14.1823 25.1762 14.2871 25.2524 14.4204C25.3286 14.5585 25.3714 14.6967 25.3714 14.8253C25.3714 14.9634 25.3333 15.1015 25.2571 15.2349L24.5237 16.5065H15.0553L14.3218 15.2349C14.2456 15.1015 14.2027 14.9634 14.2027 14.83V14.8253C14.2027 14.6919 14.2408 14.5538 14.3218 14.4157C14.398 14.2871 14.498 14.1823 14.6218 14.1156C14.7409 14.0442 14.879 14.0108 15.0314 14.0108" fill="#3D7AF0"/>
<path d="M9.35868 31.171C8.28705 31.7902 6.91538 31.4235 6.30098 30.3518C5.68182 29.2802 6.04855 27.9085 7.12017 27.2941C8.1918 26.675 9.56348 27.0417 10.1826 28.1133C10.797 29.185 10.4303 30.5519 9.35868 31.171Z" fill="#3D7AF0"/>
<path d="M18.875 23.1221H16.9937L17.67 24.2938C17.6891 24.3223 17.7034 24.3509 17.7224 24.3795L18.8464 26.3275L18.5511 26.8371L17.8463 28.0564L14.0503 21.498L13.2026 20.0263L13.1121 19.8691H10.7021C10.2592 19.8691 9.84479 19.9787 9.47806 20.193C9.11132 20.4073 8.80651 20.7074 8.58742 21.0884C8.36833 21.4694 8.25879 21.8838 8.25879 22.3077C8.25879 22.7268 8.36833 23.1412 8.59218 23.527L10.9736 27.6515L13.355 31.7761C13.5788 32.1619 13.8836 32.4667 14.2456 32.6762C14.6076 32.8858 15.0219 32.9954 15.4696 32.9954C15.9126 32.9954 16.3269 32.881 16.6889 32.6715V32.6762C17.0556 32.4619 17.3605 32.1619 17.5843 31.7761L20.7277 26.3275L18.875 23.1221ZM16.1698 30.9664C16.0888 31.0998 15.9888 31.2046 15.8745 31.2712C15.7602 31.3379 15.622 31.3712 15.4601 31.3712C15.3125 31.3712 15.1743 31.3331 15.0505 31.2617C14.9314 31.195 14.8267 31.0902 14.7552 30.9616L12.3738 26.8371L9.99244 22.7125C9.91624 22.5792 9.87813 22.441 9.87813 22.3029C9.87813 22.1696 9.91624 22.0314 9.9972 21.8981C10.0782 21.76 10.1782 21.6599 10.2877 21.5933V21.598C10.4068 21.5314 10.5449 21.4932 10.7021 21.4932H12.169L16.9032 29.69L16.1698 30.9664Z" fill="#3D7AF0"/>
</svg>
