<svg width="24" height="24" viewBox="0 0 24 24" fill="none" xmlns="http://www.w3.org/2000/svg">
<path d="M2 3H22V7H2V3ZM19 8H3V19C3 19.5304 3.21071 20.0391 3.58579 20.4142C3.96086 20.7893 4.46957 21 5 21H19C19.5304 21 20.0391 20.7893 20.4142 20.4142C20.7893 20.0391 21 19.5304 21 19V8H19ZM16 14H8V12H16V14Z" fill="#1B75BC"/>
<mask id="mask0_252_1066" style="mask-type:alpha" maskUnits="userSpaceOnUse" x="12" y="0" width="10" height="21">
<rect x="12" width="10" height="21" fill="#C4C4C4"/>
</mask>
<g mask="url(#mask0_252_1066)">
<path d="M2 3H22V7H2V3ZM19 8H3V19C3 19.5304 3.21071 20.0391 3.58579 20.4142C3.96086 20.7893 4.46957 21 5 21H19C19.5304 21 20.0391 20.7893 20.4142 20.4142C20.7893 20.0391 21 19.5304 21 19V8H19ZM16 14H8V12H16V14Z" fill="#165E96"/>
</g>
</svg>
