<svg width="15" height="15" viewBox="0 0 15 15" fill="none" xmlns="http://www.w3.org/2000/svg">
<path d="M2.5 8.125C2.84375 8.125 3.125 7.84375 3.125 7.5C3.125 7.15625 2.84375 6.875 2.5 6.875C2.15625 6.875 1.875 7.15625 1.875 7.5C1.875 7.84375 2.15625 8.125 2.5 8.125ZM2.5 10.625C2.84375 10.625 3.125 10.3438 3.125 10C3.125 9.65625 2.84375 9.375 2.5 9.375C2.15625 9.375 1.875 9.65625 1.875 10C1.875 10.3438 2.15625 10.625 2.5 10.625ZM2.5 5.625C2.84375 5.625 3.125 5.34375 3.125 5C3.125 4.65625 2.84375 4.375 2.5 4.375C2.15625 4.375 1.875 4.65625 1.875 5C1.875 5.34375 2.15625 5.625 2.5 5.625ZM5 8.125H12.5C12.8438 8.125 13.125 7.84375 13.125 7.5C13.125 7.15625 12.8438 6.875 12.5 6.875H5C4.65625 6.875 4.375 7.15625 4.375 7.5C4.375 7.84375 4.65625 8.125 5 8.125ZM5 10.625H12.5C12.8438 10.625 13.125 10.3438 13.125 10C13.125 9.65625 12.8438 9.375 12.5 9.375H5C4.65625 9.375 4.375 9.65625 4.375 10C4.375 10.3438 4.65625 10.625 5 10.625ZM4.375 5C4.375 5.34375 4.65625 5.625 5 5.625H12.5C12.8438 5.625 13.125 5.34375 13.125 5C13.125 4.65625 12.8438 4.375 12.5 4.375H5C4.65625 4.375 4.375 4.65625 4.375 5ZM2.5 8.125C2.84375 8.125 3.125 7.84375 3.125 7.5C3.125 7.15625 2.84375 6.875 2.5 6.875C2.15625 6.875 1.875 7.15625 1.875 7.5C1.875 7.84375 2.15625 8.125 2.5 8.125ZM2.5 10.625C2.84375 10.625 3.125 10.3438 3.125 10C3.125 9.65625 2.84375 9.375 2.5 9.375C2.15625 9.375 1.875 9.65625 1.875 10C1.875 10.3438 2.15625 10.625 2.5 10.625ZM2.5 5.625C2.84375 5.625 3.125 5.34375 3.125 5C3.125 4.65625 2.84375 4.375 2.5 4.375C2.15625 4.375 1.875 4.65625 1.875 5C1.875 5.34375 2.15625 5.625 2.5 5.625ZM5 8.125H12.5C12.8438 8.125 13.125 7.84375 13.125 7.5C13.125 7.15625 12.8438 6.875 12.5 6.875H5C4.65625 6.875 4.375 7.15625 4.375 7.5C4.375 7.84375 4.65625 8.125 5 8.125ZM5 10.625H12.5C12.8438 10.625 13.125 10.3438 13.125 10C13.125 9.65625 12.8438 9.375 12.5 9.375H5C4.65625 9.375 4.375 9.65625 4.375 10C4.375 10.3438 4.65625 10.625 5 10.625ZM4.375 5C4.375 5.34375 4.65625 5.625 5 5.625H12.5C12.8438 5.625 13.125 5.34375 13.125 5C13.125 4.65625 12.8438 4.375 12.5 4.375H5C4.65625 4.375 4.375 4.65625 4.375 5Z" fill="#1B75BC"/>
</svg>
