<svg width="17" height="19" viewBox="0 0 17 19" fill="none" xmlns="http://www.w3.org/2000/svg">
<path fill-rule="evenodd" clip-rule="evenodd" d="M1.79877 1.97528C0.764648 3.00852 0.764648 4.67263 0.764648 7.99999V11.5294C0.764648 14.8568 0.764648 16.5209 1.79877 17.5541C2.832 18.5882 4.49612 18.5882 7.82347 18.5882H9.58818C12.9155 18.5882 14.5796 18.5882 15.6129 17.5541C16.647 16.5209 16.647 14.8568 16.647 11.5294V7.99999C16.647 4.67263 16.647 3.00852 15.6129 1.97528C14.5796 0.941162 12.9155 0.941162 9.58818 0.941162H7.82347C4.49612 0.941162 2.832 0.941162 1.79877 1.97528ZM5.17641 7.33822C5.0009 7.33822 4.83258 7.40794 4.70847 7.53205C4.58437 7.65615 4.51465 7.82447 4.51465 7.99999C4.51465 8.1755 4.58437 8.34382 4.70847 8.46792C4.83258 8.59203 5.0009 8.66175 5.17641 8.66175H12.2352C12.4107 8.66175 12.5791 8.59203 12.7032 8.46792C12.8273 8.34382 12.897 8.1755 12.897 7.99999C12.897 7.82447 12.8273 7.65615 12.7032 7.53205C12.5791 7.40794 12.4107 7.33822 12.2352 7.33822H5.17641ZM5.17641 10.8676C5.0009 10.8676 4.83258 10.9374 4.70847 11.0615C4.58437 11.1856 4.51465 11.3539 4.51465 11.5294C4.51465 11.7049 4.58437 11.8732 4.70847 11.9973C4.83258 12.1214 5.0009 12.1912 5.17641 12.1912H9.58818C9.76369 12.1912 9.93201 12.1214 10.0561 11.9973C10.1802 11.8732 10.2499 11.7049 10.2499 11.5294C10.2499 11.3539 10.1802 11.1856 10.0561 11.0615C9.93201 10.9374 9.76369 10.8676 9.58818 10.8676H5.17641Z" fill="#1B75BC"/>
</svg>
