<svg width="17" height="17" viewBox="0 0 17 17" fill="none" xmlns="http://www.w3.org/2000/svg">
<path d="M12.1665 15.1671C11.8106 15.1713 11.4587 15.093 11.1381 14.9384C10.8175 14.7839 10.5371 14.5573 10.3187 14.2763C10.1002 13.9953 9.9498 13.6676 9.87911 13.3188C9.80842 12.9701 9.81938 12.6096 9.91115 12.2658L5.73782 9.88047C5.38577 10.203 4.94311 10.4096 4.46977 10.4722C3.99643 10.5348 3.51528 10.4504 3.09148 10.2305C2.66767 10.0106 2.32168 9.6658 2.10035 9.24274C1.87902 8.81968 1.79304 8.33882 1.85406 7.86527C1.91509 7.39172 2.12015 6.94837 2.4415 6.59523C2.76285 6.2421 3.18496 5.99625 3.65067 5.89096C4.11638 5.78568 4.60319 5.82606 5.0452 6.00662C5.4872 6.18719 5.86304 6.49922 6.12182 6.90047L9.91049 4.73447C9.86147 4.54926 9.8355 4.35871 9.83315 4.16713C9.82852 3.62595 10.0105 3.09971 10.3485 2.677C10.6864 2.25429 11.1597 1.96094 11.6886 1.84635C12.2176 1.73175 12.7698 1.80291 13.2524 2.04784C13.735 2.29277 14.1185 2.69651 14.3382 3.19108C14.558 3.68565 14.6007 4.24084 14.459 4.76316C14.3173 5.28549 14 5.74305 13.5605 6.0588C13.1209 6.37456 12.586 6.52921 12.0458 6.49673C11.5056 6.46425 10.993 6.24661 10.5945 5.88047L6.49449 8.2238C6.48982 8.39713 6.46582 8.56847 6.42182 8.7358L10.5952 11.1205C10.8745 10.8641 11.2121 10.6798 11.5788 10.5835C11.9455 10.4872 12.3301 10.4819 12.6994 10.5679C13.0686 10.654 13.4113 10.8288 13.6976 11.0773C13.9839 11.3257 14.2053 11.6403 14.3426 11.9937C14.4798 12.3472 14.5287 12.7287 14.4851 13.1053C14.4415 13.4819 14.3066 13.8422 14.0922 14.1548C13.8778 14.4675 13.5903 14.7231 13.2547 14.8995C12.9192 15.0759 12.5456 15.1678 12.1665 15.1671ZM12.1665 11.8338C11.9013 11.8338 11.6469 11.9392 11.4594 12.1267C11.2718 12.3142 11.1665 12.5686 11.1665 12.8338C11.1665 13.099 11.2718 13.3534 11.4594 13.5409C11.6469 13.7284 11.9013 13.8338 12.1665 13.8338C12.4317 13.8338 12.6861 13.7284 12.8736 13.5409C13.0611 13.3534 13.1665 13.099 13.1665 12.8338C13.1665 12.5686 13.0611 12.3142 12.8736 12.1267C12.6861 11.9392 12.4317 11.8338 12.1665 11.8338ZM4.16649 7.16713C3.90127 7.16713 3.64692 7.27249 3.45938 7.46003C3.27184 7.64756 3.16649 7.90192 3.16649 8.16713C3.16649 8.43235 3.27184 8.6867 3.45938 8.87424C3.64692 9.06178 3.90127 9.16713 4.16649 9.16713C4.4317 9.16713 4.68606 9.06178 4.87359 8.87424C5.06113 8.6867 5.16649 8.43235 5.16649 8.16713C5.16649 7.90192 5.06113 7.64756 4.87359 7.46003C4.68606 7.27249 4.4317 7.16713 4.16649 7.16713ZM12.1665 3.16713C12.0352 3.16713 11.9051 3.193 11.7838 3.24325C11.6625 3.29351 11.5522 3.36717 11.4594 3.46003C11.3665 3.55289 11.2929 3.66312 11.2426 3.78445C11.1924 3.90578 11.1665 4.03581 11.1665 4.16713C11.1665 4.29846 11.1924 4.42849 11.2426 4.54982C11.2929 4.67114 11.3665 4.78138 11.4594 4.87424C11.5522 4.9671 11.6625 5.04076 11.7838 5.09101C11.9051 5.14127 12.0352 5.16713 12.1665 5.16713C12.4317 5.16713 12.6861 5.06178 12.8736 4.87424C13.0611 4.6867 13.1665 4.43235 13.1665 4.16713C13.1665 3.90192 13.0611 3.64756 12.8736 3.46003C12.6861 3.27249 12.4317 3.16713 12.1665 3.16713Z" fill="white"/>
</svg>
