<svg width="24" height="24" viewBox="0 0 24 24" fill="none" xmlns="http://www.w3.org/2000/svg">
<g clip-path="url(#clip0_23_3742)">
<path d="M22.4998 20.9995H21.9373C21.8876 20.9995 21.8399 20.9798 21.8047 20.9446C21.7696 20.9094 21.7498 20.8617 21.7498 20.812V12.8203C21.7502 12.7905 21.7435 12.761 21.7303 12.7342C21.717 12.7075 21.6976 12.6843 21.6735 12.6666C21.6495 12.649 21.6216 12.6372 21.5922 12.6325C21.5627 12.6278 21.5326 12.6301 21.5042 12.6394C21.0741 12.7745 20.6274 12.8499 20.1767 12.8634C20.1214 12.8634 20.0689 12.8658 20.0173 12.8658C19.1505 12.8678 18.2976 12.6477 17.54 12.2264C17.4826 12.1945 17.4181 12.1778 17.3525 12.1778C17.2869 12.1778 17.2223 12.1945 17.165 12.2264C16.4076 12.6477 15.5548 12.8678 14.6881 12.8658C13.8263 12.867 12.9789 12.6442 12.229 12.2194C12.1712 12.1866 12.1059 12.1694 12.0394 12.1694C11.973 12.1694 11.9077 12.1866 11.8498 12.2194C11.0887 12.6458 10.2304 12.8686 9.35795 12.8662C8.49031 12.8668 7.6376 12.6406 6.88435 12.21C6.82607 12.1768 6.76016 12.1594 6.6931 12.1594C6.62604 12.1594 6.56014 12.1768 6.50185 12.21C5.74861 12.6406 4.89589 12.8668 4.02826 12.8662C3.97717 12.8662 3.9256 12.8662 3.87029 12.8639H3.86748C3.40097 12.8499 2.93884 12.7696 2.49498 12.6253C2.46687 12.6162 2.43701 12.6139 2.40784 12.6185C2.37867 12.6232 2.35101 12.6347 2.32711 12.652C2.30321 12.6694 2.28375 12.6921 2.27032 12.7185C2.25689 12.7448 2.24987 12.7739 2.24982 12.8034V20.812C2.24982 20.8617 2.23007 20.9094 2.1949 20.9446C2.15974 20.9798 2.11205 20.9995 2.06232 20.9995H1.52326C1.11826 20.9995 0.768572 21.3108 0.75076 21.7158C0.7462 21.817 0.762196 21.9181 0.797782 22.0129C0.833367 22.1078 0.887804 22.1945 0.957807 22.2677C1.02781 22.341 1.11193 22.3993 1.20509 22.4391C1.29824 22.4789 1.3985 22.4995 1.49982 22.4995H22.4764C22.8814 22.4995 23.2311 22.1883 23.2489 21.7833C23.2534 21.682 23.2374 21.581 23.2019 21.4861C23.1663 21.3912 23.1118 21.3046 23.0418 21.2313C22.9718 21.1581 22.8877 21.0998 22.7946 21.0599C22.7014 21.0201 22.6011 20.9995 22.4998 20.9995V20.9995ZM10.4998 17.812C10.4998 17.8617 10.4801 17.9094 10.4449 17.9446C10.4097 17.9798 10.362 17.9995 10.3123 17.9995H6.18732C6.13759 17.9995 6.0899 17.9798 6.05474 17.9446C6.01958 17.9094 5.99982 17.8617 5.99982 17.812V14.812C5.99982 14.6628 6.05909 14.5198 6.16457 14.4143C6.27006 14.3088 6.41314 14.2495 6.56232 14.2495H9.93732C10.0865 14.2495 10.2296 14.3088 10.3351 14.4143C10.4406 14.5198 10.4998 14.6628 10.4998 14.812V17.812ZM17.8123 20.9995H14.4373C14.3876 20.9995 14.3399 20.9798 14.3047 20.9446C14.2696 20.9094 14.2498 20.8617 14.2498 20.812V14.812C14.2498 14.6628 14.3091 14.5198 14.4146 14.4143C14.5201 14.3088 14.6631 14.2495 14.8123 14.2495H17.4373C17.5865 14.2495 17.7296 14.3088 17.8351 14.4143C17.9406 14.5198 17.9998 14.6628 17.9998 14.812V20.812C17.9998 20.8617 17.9801 20.9094 17.9449 20.9446C17.9097 20.9798 17.862 20.9995 17.8123 20.9995Z" fill="#3D7AF0"/>
<path d="M23.0891 7.98187L21.0772 3.36516C20.5503 2.23219 19.3471 1.5 18.0116 1.5H5.98582C4.65035 1.5 3.44707 2.23219 2.9202 3.36516L0.908321 7.98187C0.486446 8.89172 1.04379 9.82594 1.04426 9.82641L1.05738 9.8475C1.08035 9.88406 1.12113 9.94125 1.14598 9.97781C1.14832 9.98062 1.1502 9.98391 1.15254 9.98719L1.38692 10.2708C1.39568 10.2815 1.40507 10.2917 1.41504 10.3012L1.64941 10.5277L1.6691 10.5445C1.80674 10.6625 1.95397 10.7688 2.10926 10.8623V10.8647C2.6194 11.1737 3.20061 11.346 3.79676 11.3648H3.91254C4.81454 11.3665 5.68368 11.0263 6.34488 10.4128L6.36035 10.3983C6.42941 10.3332 6.52071 10.297 6.61559 10.297C6.71047 10.297 6.80177 10.3332 6.87082 10.3983L6.88629 10.4128C7.55454 11.0253 8.42809 11.3651 9.33457 11.3651C10.241 11.3651 11.1146 11.0253 11.7829 10.4128C11.8522 10.3486 11.9432 10.313 12.0376 10.313C12.1321 10.313 12.2231 10.3486 12.2924 10.4128C12.9587 11.0234 13.829 11.3629 14.7327 11.3649C15.6364 11.3669 16.5083 11.0312 17.1772 10.4236C17.2455 10.3603 17.3352 10.3252 17.4282 10.3252C17.5213 10.3252 17.611 10.3603 17.6793 10.4236C18.3489 11.0349 19.2246 11.371 20.1313 11.3648H20.248C20.8292 11.3431 21.3947 11.1703 21.8886 10.8633C21.9332 10.8366 21.9758 10.8084 22.0189 10.7803C22.3521 10.5557 22.642 10.2729 22.8749 9.94547L22.9564 9.82219C22.9646 9.80969 22.9721 9.79656 22.9789 9.78281C23.0568 9.62437 23.4739 8.80969 23.0891 7.98187V7.98187Z" fill="#3D7AF0"/>
<mask id="mask0_23_3742" style="mask-type:alpha" maskUnits="userSpaceOnUse" x="9" y="-2" width="19" height="26">
<ellipse cx="18.6001" cy="11.4" rx="9" ry="12.6" fill="black"/>
</mask>
<g mask="url(#mask0_23_3742)">
<path d="M22.4998 20.9995H21.9373C21.8876 20.9995 21.8399 20.9798 21.8047 20.9446C21.7696 20.9094 21.7498 20.8617 21.7498 20.812V12.8203C21.7502 12.7905 21.7435 12.761 21.7303 12.7342C21.717 12.7075 21.6976 12.6843 21.6735 12.6666C21.6495 12.649 21.6216 12.6372 21.5922 12.6325C21.5627 12.6278 21.5326 12.6301 21.5042 12.6394C21.0741 12.7745 20.6274 12.8499 20.1767 12.8634C20.1214 12.8634 20.0689 12.8658 20.0173 12.8658C19.1505 12.8678 18.2976 12.6477 17.54 12.2264C17.4826 12.1945 17.4181 12.1778 17.3525 12.1778C17.2869 12.1778 17.2223 12.1945 17.165 12.2264C16.4076 12.6477 15.5548 12.8678 14.6881 12.8658C13.8263 12.867 12.9789 12.6442 12.229 12.2194C12.1712 12.1866 12.1059 12.1694 12.0394 12.1694C11.973 12.1694 11.9077 12.1866 11.8498 12.2194C11.0887 12.6458 10.2304 12.8686 9.35795 12.8662C8.49031 12.8668 7.6376 12.6406 6.88435 12.21C6.82607 12.1768 6.76016 12.1594 6.6931 12.1594C6.62604 12.1594 6.56014 12.1768 6.50185 12.21C5.74861 12.6406 4.89589 12.8668 4.02826 12.8662C3.97717 12.8662 3.9256 12.8662 3.87029 12.8639H3.86748C3.40097 12.8499 2.93884 12.7696 2.49498 12.6253C2.46687 12.6162 2.43701 12.6139 2.40784 12.6185C2.37867 12.6232 2.35101 12.6347 2.32711 12.652C2.30321 12.6694 2.28375 12.6921 2.27032 12.7185C2.25689 12.7448 2.24987 12.7739 2.24982 12.8034V20.812C2.24982 20.8617 2.23007 20.9094 2.1949 20.9446C2.15974 20.9798 2.11205 20.9995 2.06232 20.9995H1.52326C1.11826 20.9995 0.768572 21.3108 0.75076 21.7158C0.7462 21.817 0.762196 21.9181 0.797782 22.0129C0.833367 22.1078 0.887804 22.1945 0.957807 22.2677C1.02781 22.341 1.11193 22.3993 1.20509 22.4391C1.29824 22.4789 1.3985 22.4995 1.49982 22.4995H22.4764C22.8814 22.4995 23.2311 22.1883 23.2489 21.7833C23.2534 21.682 23.2374 21.581 23.2019 21.4861C23.1663 21.3912 23.1118 21.3046 23.0418 21.2313C22.9718 21.1581 22.8877 21.0998 22.7946 21.0599C22.7014 21.0201 22.6011 20.9995 22.4998 20.9995V20.9995ZM10.4998 17.812C10.4998 17.8617 10.4801 17.9094 10.4449 17.9446C10.4097 17.9798 10.362 17.9995 10.3123 17.9995H6.18732C6.13759 17.9995 6.0899 17.9798 6.05474 17.9446C6.01958 17.9094 5.99982 17.8617 5.99982 17.812V14.812C5.99982 14.6628 6.05909 14.5198 6.16457 14.4143C6.27006 14.3088 6.41314 14.2495 6.56232 14.2495H9.93732C10.0865 14.2495 10.2296 14.3088 10.3351 14.4143C10.4406 14.5198 10.4998 14.6628 10.4998 14.812V17.812ZM17.8123 20.9995H14.4373C14.3876 20.9995 14.3399 20.9798 14.3047 20.9446C14.2696 20.9094 14.2498 20.8617 14.2498 20.812V14.812C14.2498 14.6628 14.3091 14.5198 14.4146 14.4143C14.5201 14.3088 14.6631 14.2495 14.8123 14.2495H17.4373C17.5865 14.2495 17.7296 14.3088 17.8351 14.4143C17.9406 14.5198 17.9998 14.6628 17.9998 14.812V20.812C17.9998 20.8617 17.9801 20.9094 17.9449 20.9446C17.9097 20.9798 17.862 20.9995 17.8123 20.9995Z" fill="#254A92"/>
<path d="M23.0891 7.98187L21.0772 3.36516C20.5503 2.23219 19.3471 1.5 18.0116 1.5H5.98582C4.65035 1.5 3.44707 2.23219 2.9202 3.36516L0.908321 7.98187C0.486446 8.89172 1.04379 9.82594 1.04426 9.82641L1.05738 9.8475C1.08035 9.88406 1.12113 9.94125 1.14598 9.97781C1.14832 9.98062 1.1502 9.98391 1.15254 9.98719L1.38692 10.2708C1.39568 10.2815 1.40507 10.2917 1.41504 10.3012L1.64941 10.5277L1.6691 10.5445C1.80674 10.6625 1.95397 10.7688 2.10926 10.8623V10.8647C2.6194 11.1737 3.20061 11.346 3.79676 11.3648H3.91254C4.81454 11.3665 5.68368 11.0263 6.34488 10.4128L6.36035 10.3983C6.42941 10.3332 6.52071 10.297 6.61559 10.297C6.71047 10.297 6.80177 10.3332 6.87082 10.3983L6.88629 10.4128C7.55454 11.0253 8.42809 11.3651 9.33457 11.3651C10.241 11.3651 11.1146 11.0253 11.7829 10.4128C11.8522 10.3486 11.9432 10.313 12.0376 10.313C12.1321 10.313 12.2231 10.3486 12.2924 10.4128C12.9587 11.0234 13.829 11.3629 14.7327 11.3649C15.6364 11.3669 16.5083 11.0312 17.1772 10.4236C17.2455 10.3603 17.3352 10.3252 17.4282 10.3252C17.5213 10.3252 17.611 10.3603 17.6793 10.4236C18.3489 11.0349 19.2246 11.371 20.1313 11.3648H20.248C20.8292 11.3431 21.3947 11.1703 21.8886 10.8633C21.9332 10.8366 21.9758 10.8084 22.0189 10.7803C22.3521 10.5557 22.642 10.2729 22.8749 9.94547L22.9564 9.82219C22.9646 9.80969 22.9721 9.79656 22.9789 9.78281C23.0568 9.62437 23.4739 8.80969 23.0891 7.98187V7.98187Z" fill="#254A92"/>
</g>
</g>
<defs>
<clipPath id="clip0_23_3742">
<rect width="24" height="24" fill="white"/>
</clipPath>
</defs>
</svg>
