<svg width="20" height="15" viewBox="0 0 20 15" fill="none" xmlns="http://www.w3.org/2000/svg">
<path d="M10 0.957031C5.031 0.957031 0 2.48967 0 5.41813C0 8.34659 5.031 9.87922 10 9.87922C14.97 9.87922 20 8.34659 20 5.41813C20 2.48967 14.97 0.957031 10 0.957031ZM5 10.8091V13.7832C6.237 14.0796 7.605 14.261 9 14.3195V11.3454C7.605 11.286 6.237 11.1045 5 10.8091ZM11 11.3444V14.3185C12.395 14.26 13.764 14.0786 15 13.7822V10.8081C13.764 11.1045 12.395 11.286 11 11.3444ZM17 10.1737V13.1477C18.801 12.3992 20 11.3068 20 9.87922V6.90516C20 8.33271 18.801 9.42518 17 10.1737ZM3 13.1477V10.1737C1.2 9.42518 0 8.33172 0 6.90516V9.87922C0 11.3058 1.2 12.3992 3 13.1477Z" fill="#3D7AF0"/>
</svg>
