<svg width="24" height="21" viewBox="0 0 24 21" fill="none" xmlns="http://www.w3.org/2000/svg">
<path d="M22.5001 19.4993H21.9376C21.8878 19.4993 21.8401 19.4796 21.805 19.4444C21.7698 19.4092 21.7501 19.3615 21.7501 19.3118V11.3201C21.7505 11.2903 21.7438 11.2608 21.7305 11.234C21.7173 11.2073 21.6978 11.1841 21.6738 11.1665C21.6498 11.1488 21.6219 11.137 21.5924 11.1323C21.563 11.1276 21.5328 11.1299 21.5044 11.1392C21.0743 11.2743 20.6276 11.3497 20.1769 11.3632C20.1216 11.3632 20.0691 11.3656 20.0176 11.3656C19.1507 11.3676 18.2978 11.1475 17.5402 10.7262C17.4829 10.6943 17.4183 10.6776 17.3527 10.6776C17.2871 10.6776 17.2226 10.6943 17.1652 10.7262C16.4078 11.1475 15.555 11.3676 14.6883 11.3656C13.8265 11.3668 12.9791 11.144 12.2293 10.7192C12.1715 10.6864 12.1061 10.6692 12.0397 10.6692C11.9732 10.6692 11.9079 10.6864 11.8501 10.7192C11.089 11.1456 10.2306 11.3684 9.35819 11.366C8.49056 11.3666 7.63784 11.1404 6.8846 10.7098C6.82631 10.6766 6.76041 10.6592 6.69335 10.6592C6.62629 10.6592 6.56038 10.6766 6.5021 10.7098C5.74885 11.1404 4.89614 11.3666 4.0285 11.366C3.97741 11.366 3.92585 11.366 3.87053 11.3637H3.86772C3.40122 11.3497 2.93908 11.2694 2.49522 11.1251C2.46711 11.116 2.43726 11.1137 2.40808 11.1183C2.37891 11.123 2.35125 11.1345 2.32735 11.1518C2.30346 11.1692 2.284 11.1919 2.27057 11.2183C2.25714 11.2446 2.25011 11.2737 2.25007 11.3032V19.3118C2.25007 19.3615 2.23031 19.4092 2.19515 19.4444C2.15999 19.4796 2.11229 19.4993 2.06257 19.4993H1.5235C1.1185 19.4993 0.768816 19.8106 0.751004 20.2156C0.746445 20.3168 0.76244 20.4179 0.798026 20.5127C0.833611 20.6076 0.888048 20.6943 0.958052 20.7675C1.02805 20.8408 1.11217 20.8991 1.20533 20.9389C1.29849 20.9787 1.39875 20.9993 1.50007 20.9993H22.4766C22.8816 20.9993 23.2313 20.6881 23.2491 20.2831C23.2537 20.1818 23.2377 20.0808 23.2021 19.9859C23.1665 19.891 23.1121 19.8044 23.0421 19.7311C22.9721 19.6579 22.888 19.5996 22.7948 19.5597C22.7016 19.5199 22.6014 19.4993 22.5001 19.4993ZM10.5001 16.3118C10.5001 16.3615 10.4803 16.4092 10.4451 16.4444C10.41 16.4796 10.3623 16.4993 10.3126 16.4993H6.18757C6.13784 16.4993 6.09015 16.4796 6.05498 16.4444C6.01982 16.4092 6.00007 16.3615 6.00007 16.3118V13.3118C6.00007 13.1626 6.05933 13.0196 6.16482 12.9141C6.27031 12.8086 6.41338 12.7493 6.56257 12.7493H9.93757C10.0868 12.7493 10.2298 12.8086 10.3353 12.9141C10.4408 13.0196 10.5001 13.1626 10.5001 13.3118V16.3118ZM17.8126 19.4993H14.4376C14.3878 19.4993 14.3401 19.4796 14.305 19.4444C14.2698 19.4092 14.2501 19.3615 14.2501 19.3118V13.3118C14.2501 13.1626 14.3093 13.0196 14.4148 12.9141C14.5203 12.8086 14.6634 12.7493 14.8126 12.7493H17.4376C17.5868 12.7493 17.7298 12.8086 17.8353 12.9141C17.9408 13.0196 18.0001 13.1626 18.0001 13.3118V19.3118C18.0001 19.3615 17.9803 19.4092 17.9451 19.4444C17.91 19.4796 17.8623 19.4993 17.8126 19.4993Z" fill="#479E10"/>
<path d="M23.0893 6.48187L21.0775 1.86516C20.5506 0.732188 19.3473 0 18.0118 0H5.98606C4.6506 0 3.44731 0.732188 2.92044 1.86516L0.908565 6.48187C0.48669 7.39172 1.04403 8.32594 1.0445 8.32641L1.05763 8.3475C1.0806 8.38406 1.12138 8.44125 1.14622 8.47781C1.14857 8.48062 1.15044 8.48391 1.15278 8.48719L1.38716 8.77078C1.39592 8.78148 1.40531 8.79166 1.41528 8.80125L1.64966 9.02766L1.66935 9.04453C1.80699 9.1625 1.95422 9.26881 2.1095 9.36234V9.36469C2.61965 9.67371 3.20086 9.84598 3.797 9.86484H3.91278C4.81479 9.86652 5.68392 9.52634 6.34513 8.91281L6.3606 8.89828C6.42965 8.83321 6.52095 8.79698 6.61583 8.79698C6.71071 8.79698 6.80201 8.83321 6.87107 8.89828L6.88653 8.91281C7.55478 9.5253 8.42834 9.86507 9.33482 9.86507C10.2413 9.86507 11.1148 9.5253 11.7831 8.91281C11.8524 8.84864 11.9434 8.81298 12.0379 8.81298C12.1323 8.81298 12.2233 8.84864 12.2926 8.91281C12.9589 9.52336 13.8293 9.86294 14.733 9.86494C15.6367 9.86693 16.5085 9.5312 17.1775 8.92359C17.2458 8.86034 17.3354 8.8252 17.4285 8.8252C17.5216 8.8252 17.6112 8.86034 17.6795 8.92359C18.3492 9.5349 19.2248 9.87104 20.1315 9.86484H20.2483C20.8294 9.84315 21.3949 9.67027 21.8889 9.36328C21.9334 9.33656 21.9761 9.30844 22.0192 9.28031C22.3523 9.05572 22.6423 8.77292 22.8751 8.44547L22.9567 8.32219C22.9648 8.30969 22.9723 8.29656 22.9792 8.28281C23.057 8.12437 23.4742 7.30969 23.0893 6.48187Z" fill="#479E10"/>
</svg>
