<svg width="34" height="34" viewBox="0 0 34 34" fill="none" xmlns="http://www.w3.org/2000/svg">
<g clip-path="url(#clip0_63_8313)">
<path d="M17.0002 1.88892C14.0115 1.88892 11.0899 2.77517 8.60487 4.4356C6.11986 6.09603 4.18303 8.45606 3.03931 11.2173C1.89559 13.9784 1.59634 17.0168 2.1794 19.9481C2.76247 22.8793 4.20166 25.5719 6.31499 27.6852C8.42831 29.7985 11.1209 31.2377 14.0521 31.8208C16.9834 32.4038 20.0217 32.1046 22.7829 30.9609C25.5441 29.8172 27.9042 27.8803 29.5646 25.3953C31.225 22.9103 32.1113 19.9887 32.1113 17C32.1113 12.9923 30.5192 9.14874 27.6853 6.31486C24.8514 3.48098 21.0079 1.88892 17.0002 1.88892ZM26.8696 11.9284L14.4596 24.3289L7.13071 17C6.88023 16.7495 6.73951 16.4098 6.73951 16.0556C6.73951 15.7013 6.88023 15.3616 7.13071 15.1111C7.38119 14.8607 7.72092 14.7199 8.07516 14.7199C8.42939 14.7199 8.76912 14.8607 9.0196 15.1111L14.4785 20.57L24.9996 10.0584C25.1236 9.93433 25.2709 9.83595 25.4329 9.76883C25.595 9.70171 25.7686 9.66716 25.944 9.66716C26.1194 9.66716 26.2931 9.70171 26.4552 9.76883C26.6172 9.83595 26.7645 9.93433 26.8885 10.0584C27.0125 10.1824 27.1109 10.3296 27.178 10.4917C27.2451 10.6537 27.2797 10.8274 27.2797 11.0028C27.2797 11.1782 27.2451 11.3519 27.178 11.5139C27.1109 11.676 27.0125 11.8232 26.8885 11.9472L26.8696 11.9284Z" fill="#03CD03"/>
</g>
<defs>
<clipPath id="clip0_63_8313">
<rect width="34" height="34" fill="white"/>
</clipPath>
</defs>
</svg>
