<?xml version="1.0" encoding="utf-8"?>
<!-- Generator: Adobe Illustrator 18.0.0, SVG Export Plug-In . SVG Version: 6.00 Build 0)  -->
<!DOCTYPE svg PUBLIC "-//W3C//DTD SVG 1.1//EN" "http://www.w3.org/Graphics/SVG/1.1/DTD/svg11.dtd">
<svg version="1.1" id="Layer_1" xmlns="http://www.w3.org/2000/svg" xmlns:xlink="http://www.w3.org/1999/xlink" x="0px" y="0px"
	 viewBox="0 0 32 32" enable-background="new 0 0 32 32" xml:space="preserve">
<ellipse fill="#C5D7FA" cx="15.8" cy="16.1" rx="14.8" ry="14.8"/>
<path fill="#FFFFFF" d="M22.6,13.8C22.6,13.8,22.6,13.8,22.6,13.8L22.6,13.8C22.6,13.8,22.6,13.8,22.6,13.8c0,0.5-0.5,0.8-1,0.8
	h-0.2c-0.6,0-1-0.4-1-0.8c0,0.4-0.5,0.8-1,0.8h-0.3c-0.6,0-1-0.4-1-0.8c0,0.4-0.5,0.8-1,0.8h-0.2c-0.6,0-1-0.4-1-0.8
	c0,0.4-0.5,0.8-1,0.8h-0.2c-0.6,0-1-0.4-1-0.8c0,0.4-0.5,0.8-1,0.8h-0.2c-0.6,0-1-0.4-1-0.8c0,0.4-0.5,0.8-1,0.8H9.5
	c-0.6,0-1-0.4-1-0.8c0,0,0,0.1,0,0.1c-0.1,0.4-0.5,0.7-1,0.7H7.2c0,0,0,0,0,0v9.8h16.6v-9.8h-0.2C23,14.6,22.6,14.2,22.6,13.8z"/>
<path fill="#D5D8D8" d="M7.2,10.8v3.8c0,0,0,0,0,0h0.2c0.5,0,1-0.3,1-0.7c0,0,0-0.1,0-0.1c0,0.4,0.5,0.8,1,0.8h0.2
	c0.6,0,1-0.4,1-0.8c0,0.4,0.5,0.8,1,0.8h0.2c0.6,0,1-0.4,1-0.8c0,0.4,0.5,0.8,1,0.8h0.2c0.6,0,1-0.4,1-0.8c0,0.4,0.5,0.8,1,0.8h0.2
	c0.6,0,1-0.4,1-0.8c0,0.4,0.5,0.8,1,0.8h0.3c0.6,0,1-0.4,1-0.8c0,0.4,0.5,0.8,1,0.8h0.2c0.6,0,1-0.3,1-0.8c0,0,0,0,0,0v0
	c0,0,0,0,0,0c0,0.4,0.5,0.8,1,0.8h0.2v-3.8H7.2L7.2,10.8z"/>
<polygon fill="#3865CE" points="21.8,13.9 21.8,13.9 9.1,13.9 9.1,22.7 9.2,22.7 9.2,22.7 21.8,22.7 21.8,13.9 "/>
<path fill="#3865CE" d="M15.8,7.3V6.6h-2.3v1.6v0.6h0v3.8c0,0.4,0.5,0.8,1.1,0.8h0.2c0.6,0,1.1-0.4,1.1-0.8L15.8,7.3
	C15.8,7.4,15.8,7.4,15.8,7.3z"/>
<path fill="#FFFFFF" d="M18.1,7.4V6.6h-2.4v2.1h0v3.9c0,0.4,0.5,0.8,1.1,0.8h0.2c0.6,0,1.1-0.4,1.1-0.8L18.1,7.4
	C18.1,7.4,18.1,7.4,18.1,7.4z"/>
<path fill="#3865CE" d="M20.5,7.4V6.6h-2.3v0.8c0,0,0,0,0,0v5.2c0,0.4,0.5,0.8,1.1,0.8h0.3c0.6,0,1.1-0.4,1.1-0.8L20.5,7.4
	C20.5,7.4,20.5,7.4,20.5,7.4z"/>
<path fill="#3865CE" d="M11.1,6.6H9.6c0,0,0,0,0,0C9.3,6.6,9,6.7,8.7,6.8v0.3C8,7.7,7.9,8.8,7.9,8.8l0.8,0v3.9c0,0,0-0.1,0-0.1
	c0,0.4,0.5,0.8,1,0.8H10c0.6,0,1.1-0.4,1.1-0.8V8.8h0V6.6z"/>
<path fill="#FFFFFF" d="M8.5,6.9c-2.1,1-2.1,4.4-2.1,4.4s0,0,0,0v1.3c0,0.4,0.5,0.8,1.1,0.8h0.2c0.5,0,1-0.3,1-0.7V6.8
	C8.6,6.8,8.5,6.9,8.5,6.9z"/>
<path fill="#FFFFFF" d="M22.8,8.7l0.3,0l-0.3-0.4V7.4c0,0,0,0,0,0V6.8c-0.3-0.1-0.7-0.2-1-0.2c0,0,0,0,0,0h0l0,0l-1.2,0v0.8
	c0,0,0,0,0,0v5.2c0,0.4,0.5,0.8,1.1,0.8h0.2c0.6,0,1-0.3,1-0.8c0,0,0,0,0,0v0c0,0,0,0,0,0V8.7L22.8,8.7z"/>
<path fill="#CC3131" d="M22.8,12.6L22.8,12.6c0,0.5,0.5,0.8,1,0.8h0C23.3,13.4,22.8,13.1,22.8,12.6z"/>
<path fill="#3865CE" d="M25.2,11.3c0,0,0.1-3.4-2.1-4.4c0,0,0,0,0,0c-0.1,0-0.2-0.1-0.3-0.1v0.6v5.2c0,0.4,0.5,0.8,1.1,0.8h0.2
	c0.6,0,1.1-0.4,1.1-0.8L25.2,11.3C25.2,11.3,25.2,11.3,25.2,11.3z"/>
<path fill="#FFFFFF" d="M13.4,7.4V6.6h-2.3v0.7c0,0,0,0.1,0,0.1v5.2c0,0.4,0.5,0.8,1.1,0.8h0.2c0.6,0,1.1-0.4,1.1-0.8L13.4,7.4
	C13.4,7.4,13.4,7.4,13.4,7.4z"/>
<path fill="#2C3280" d="M24.4,24.8c0,0.4-0.3,0.7-0.7,0.7H7.3c-0.4,0-0.7-0.3-0.7-0.7s0.3-0.7,0.7-0.7h16.4
	C24.1,24.1,24.4,24.4,24.4,24.8z"/>
</svg>
