<svg width="15" height="16" viewBox="0 0 15 16" fill="none" xmlns="http://www.w3.org/2000/svg">
<path d="M7.42857 16C6.17764 16 4.92927 15.9725 3.68859 15.92C3.5476 15.915 3.40662 15.9075 3.26307 15.9C2.28129 15.855 1.3636 15.4351 0.750947 14.7527C0.207508 14.1478 -0.0565203 13.3904 0.0101278 12.6205L0.138297 11.0358C0.176748 10.5534 0.60996 10.1909 1.10726 10.2309C1.60199 10.2684 1.97368 10.6908 1.93267 11.1758L1.8045 12.7655C1.77117 13.143 1.95061 13.4254 2.10441 13.5979C2.39664 13.9253 2.85036 14.1253 3.35022 14.1478C3.48864 14.1553 3.62707 14.1603 3.76549 14.1653C6.334 14.2728 8.94097 14.2678 11.5095 14.1478C12.0068 14.1253 12.4605 13.9228 12.7553 13.5979C12.9091 13.4254 13.0885 13.143 13.0552 12.7705C13.0091 12.2131 12.5348 11.7432 11.8786 11.5957C8.74102 10.9008 5.62907 10.0135 2.62991 8.95612C1.29695 8.48619 0.44334 7.22139 0.556129 5.8816C0.699679 4.20936 2.17106 2.96705 3.90135 3.04454C6.24429 3.15452 8.61798 3.15452 10.9584 3.04454C12.6912 2.96455 14.16 4.20936 14.3036 5.8791L14.4317 7.47385C14.4702 7.95627 14.1011 8.37871 13.6063 8.4162C13.109 8.4562 12.6784 8.09375 12.6399 7.61133L12.5118 6.02158C12.4502 5.31419 11.7915 4.76427 11.0455 4.79677C8.64618 4.90925 6.21352 4.90925 3.81419 4.79677C3.06825 4.76427 2.40946 5.31419 2.34794 6.02658C2.3018 6.58649 2.66067 7.10141 3.24 7.30638C6.16995 8.33871 9.21012 9.20858 12.2759 9.88597C13.7037 10.2034 14.7368 11.3033 14.847 12.6255C14.9137 13.3929 14.6496 14.1478 14.1062 14.7552C13.4935 15.4376 12.5759 15.8575 11.5941 15.9025C10.2124 15.9675 8.82049 16 7.42857 16Z" fill="#1B75BC"/>
<path d="M10.5148 4.20184H3.93718C3.6552 4.20184 3.42706 3.97938 3.42706 3.70442C3.42706 1.66224 5.13172 0 7.226 0C9.32029 0 11.0249 1.66224 11.0249 3.70442C11.0249 3.97688 10.7968 4.20184 10.5148 4.20184ZM4.496 3.2045H9.95857C9.71762 1.9472 8.5846 0.992345 7.22857 0.992345C5.86997 0.994845 4.73695 1.9472 4.496 3.2045Z" fill="#1B75BC"/>
</svg>
