<svg width="17" height="18" viewBox="0 0 17 18" fill="none" xmlns="http://www.w3.org/2000/svg">
<rect x="0.882324" y="0.352539" width="15.8824" height="17.6471" rx="4.57516" fill="#1B75BC"/>
<g clip-path="url(#clip0_4_693)">
<path d="M9.60274 5.51394C9.47406 5.38542 9.29964 5.31323 9.11777 5.31323C8.93591 5.31323 8.76148 5.38542 8.63281 5.51394L6.04372 8.10165C5.91498 8.23039 5.84265 8.405 5.84265 8.58707C5.84265 8.76914 5.91498 8.94376 6.04372 9.0725C6.17246 9.20124 6.34708 9.27357 6.52915 9.27357C6.71122 9.27357 6.88583 9.20124 7.01457 9.0725L8.4315 7.65603V12.9335C8.4315 13.1155 8.5038 13.29 8.6325 13.4187C8.7612 13.5474 8.93576 13.6198 9.11777 13.6198C9.29978 13.6198 9.47434 13.5474 9.60304 13.4187C9.73174 13.29 9.80405 13.1155 9.80405 12.9335V7.65603L11.2205 9.0725C11.2843 9.13625 11.3599 9.18681 11.4432 9.22131C11.5265 9.25581 11.6158 9.27357 11.7059 9.27357C11.7961 9.27357 11.8854 9.25581 11.9687 9.22131C12.0519 9.18681 12.1276 9.13625 12.1914 9.0725C12.2551 9.00875 12.3057 8.93307 12.3402 8.84978C12.3747 8.76649 12.3924 8.67723 12.3924 8.58707C12.3924 8.49692 12.3747 8.40765 12.3402 8.32436C12.3057 8.24107 12.2551 8.1654 12.1914 8.10165L9.60274 5.51394Z" fill="white"/>
</g>
<defs>
<clipPath id="clip0_4_693">
<rect width="10.9804" height="10.9804" fill="white" transform="translate(3.62744 4.01367)"/>
</clipPath>
</defs>
</svg>
