<svg width="31" height="25" viewBox="0 0 31 25" fill="none" xmlns="http://www.w3.org/2000/svg">
<path d="M14.041 19.7904H16.9577V13.6654L19.291 15.9987L21.3327 13.957L15.4993 8.1237L9.66602 13.957L11.7077 15.9987L14.041 13.6654V19.7904ZM3.83268 24.1654C3.0306 24.1654 2.34421 23.88 1.77352 23.3093C1.20185 22.7377 0.916016 22.0508 0.916016 21.2487V3.7487C0.916016 2.94661 1.20185 2.26023 1.77352 1.68953C2.34421 1.11786 3.0306 0.832031 3.83268 0.832031H12.5827L15.4993 3.7487H27.166C27.9681 3.7487 28.655 4.03453 29.2266 4.6062C29.7973 5.17689 30.0827 5.86328 30.0827 6.66536V21.2487C30.0827 22.0508 29.7973 22.7377 29.2266 23.3093C28.655 23.88 27.9681 24.1654 27.166 24.1654H3.83268ZM3.83268 3.7487V21.2487H27.166V6.66536H14.2962L11.3796 3.7487H3.83268Z" fill="#3D7AF0"/>
</svg>
