<?xml version="1.0" standalone="no"?>
<!DOCTYPE svg PUBLIC "-//W3C//DTD SVG 20010904//EN"
 "http://www.w3.org/TR/2001/REC-SVG-20010904/DTD/svg10.dtd">
<svg version="1.0" xmlns="http://www.w3.org/2000/svg"
 width="120.000000pt" height="120.000000pt" viewBox="0 0 120.000000 120.000000"
 preserveAspectRatio="xMidYMid meet">
<metadata>
Created by potrace 1.14, written by Peter Selinger 2001-2017
</metadata>
<g transform="translate(0.000000,120.000000) scale(0.100000,-0.100000)"
fill="#000000" stroke="none">
<path d="M470 1185 c-173 -39 -331 -165 -408 -326 -50 -105 -62 -160 -57 -276
7 -210 100 -374 276 -489 103 -67 173 -87 309 -88 92 -1 129 3 185 21 86 27
180 83 241 143 l46 45 -93 3 c-86 3 -97 1 -148 -27 -189 -99 -406 -66 -556 86
-238 242 -137 654 186 763 120 41 261 29 367 -31 57 -32 79 -35 217 -29 l30 1
-57 54 c-66 62 -158 116 -238 140 -78 23 -221 28 -300 10z"/>
<path d="M342 840 c-10 -26 -8 -473 2 -489 11 -18 449 -15 484 3 55 29 93 93
87 147 -4 36 -21 73 -39 88 -14 11 -13 15 4 34 40 42 35 135 -9 185 -39 46
-76 52 -306 52 -208 0 -216 -1 -223 -20z m406 -123 c18 -12 15 -57 -5 -64 -9
-4 -71 -7 -138 -7 l-120 0 -3 40 -3 40 128 -1 c70 0 134 -4 141 -8z m8 -181
c15 -21 7 -54 -15 -60 -16 -5 -155 -10 -223 -7 -37 1 -38 2 -38 39 0 21 2 41
4 43 3 2 62 4 132 3 106 -1 130 -4 140 -18z"/>
<path d="M1020 798 c60 -128 57 -285 -6 -410 -13 -26 -20 -49 -14 -49 5 -1 38
-2 71 -3 74 -1 79 4 107 117 27 106 23 235 -10 332 l-25 70 -76 3 -76 3 29
-63z"/>
</g>
</svg>
